<svg width="125" height="53" viewBox="0 0 125 53" fill="none" xmlns="http://www.w3.org/2000/svg">
<path d="M62.708 39V16.32H68.28C69.288 16.32 70.1933 16.4133 70.996 16.6C71.8173 16.7867 72.5173 17.104 73.096 17.552C73.6933 17.9813 74.1507 18.5693 74.468 19.316C74.7853 20.0627 74.944 21.0053 74.944 22.144C74.944 23.0587 74.8133 23.8427 74.552 24.496C74.3093 25.1493 73.9453 25.672 73.46 26.064C72.9747 26.4373 72.368 26.6893 71.64 26.82C72.536 26.9693 73.2733 27.2867 73.852 27.772C74.4493 28.2387 74.888 28.8547 75.168 29.62C75.4667 30.3853 75.616 31.3093 75.616 32.392C75.616 33.4747 75.476 34.436 75.196 35.276C74.9347 36.0973 74.5333 36.788 73.992 37.348C73.4693 37.8893 72.8067 38.3 72.004 38.58C71.22 38.86 70.296 39 69.232 39H62.708ZM66.852 36.088H68.42C69.6707 36.088 70.52 35.7893 70.968 35.192C71.416 34.576 71.64 33.6333 71.64 32.364C71.64 31.4493 71.528 30.712 71.304 30.152C71.0987 29.5733 70.744 29.144 70.24 28.864C69.7547 28.584 69.1013 28.444 68.28 28.444H66.852V36.088ZM66.852 25.588H68.252C69.0733 25.588 69.708 25.4667 70.156 25.224C70.604 24.9813 70.912 24.608 71.08 24.104C71.2667 23.6 71.36 22.9653 71.36 22.2C71.36 21.3973 71.22 20.7813 70.94 20.352C70.6787 19.904 70.2773 19.6053 69.736 19.456C69.1947 19.288 68.504 19.204 67.664 19.204H66.852V25.588ZM79.4139 39V16.32H88.9339V19.232H83.5579V25.756H87.7859V28.64H83.5579V36.144H88.9899V39H79.4139Z" fill="white"/>
<path d="M92.5105 39V16.32H101.835V19.176H96.6545V25.784H100.883V28.668H96.6545V39H92.5105ZM105.309 39V16.32H109.397V39H105.309ZM116.296 39V19.372H112.684V16.32H123.996V19.372H120.44V39H116.296Z" fill="#EC0404"/>
<path d="M3.10836 23.9433C3.29425 24.7791 3.60701 25.6525 4.01946 26.5483H2.74225C2.00528 26.5483 1.40625 27.1432 1.40625 27.884C1.40625 28.6202 2.0046 29.22 2.7424 29.2196H2.74225L3.10836 23.9433ZM3.10836 23.9433C2.6644 22.5997 2.42433 21.1004 2.42433 19.5913C2.42433 14.3275 5.29168 9.4708 9.90506 6.91356L9.90598 6.91305C12.0486 5.73721 14.4622 5.11877 16.8934 5.11877C20.7041 5.11877 24.3149 6.60399 27.0107 9.23801C29.7054 6.60403 33.3122 5.11877 37.123 5.11877C39.5597 5.11877 41.9678 5.73723 44.1107 6.91305L44.1113 6.9134C48.7343 9.46764 51.5937 14.3277 51.5937 19.5892C51.5937 21.1011 51.3575 22.5988 50.885 24.0447C50.294 26.6867 48.5906 29.4482 46.3815 32.1017C44.1656 34.7632 41.4234 37.3367 38.7326 39.5979C33.354 44.1177 28.159 47.4072 27.7264 47.6776M3.10836 23.9433L18.5338 22.7305C18.2928 22.3586 17.8261 22.0706 17.3754 22.1217C16.9185 22.134 16.4998 22.3783 16.2666 22.7703C16.2666 22.7704 16.2665 22.7705 16.2664 22.7707L14.0128 26.5434H7.03161C6.39094 25.3936 5.92338 24.3037 5.68585 23.2459L5.68323 23.2342L5.67951 23.2229C5.29231 22.0408 5.09599 20.8201 5.09599 19.5892C5.09599 15.2978 7.43353 11.334 11.1955 9.25226C12.9417 8.29481 14.9117 7.78903 16.8937 7.78903C20.4147 7.78903 23.728 9.34513 25.985 12.0587C26.2395 12.3703 26.6198 12.543 27.0132 12.543C27.4121 12.543 27.7861 12.3637 28.0404 12.0604L28.0413 12.0593C30.2929 9.34343 33.603 7.78903 37.1254 7.78903C39.1104 7.78903 41.0793 8.29683 42.8199 9.25216C46.584 11.3385 48.9221 15.2983 48.9221 19.5916C48.9221 20.8242 48.7274 22.0453 48.3148 23.3297L48.3113 23.3406L48.3088 23.3518C47.8393 25.4571 46.4861 27.7328 44.6433 30.0068C42.8035 32.2769 40.4921 34.5257 38.1324 36.577C33.5378 40.5711 28.7798 43.7999 27.0156 44.9596C24.6597 43.4115 16.9958 38.2012 11.4786 32.3743C10.9704 31.8365 10.1265 31.8164 9.59019 32.3194C9.05123 32.8241 9.03174 33.6725 9.53586 34.2065L9.53616 34.2069C16.326 41.375 25.8889 47.4187 26.3029 47.6777M22.5222 32.2189L22.5479 32.4676C22.5482 32.4676 22.5485 32.4675 22.5488 32.4675C22.549 32.4675 22.5492 32.4675 22.5494 32.4674L22.5222 32.2189ZM22.5222 32.2189C22.4808 32.2234 22.4418 32.2273 22.4024 32.2273C22.0377 32.2273 21.6929 32.0406 21.4906 31.7309M22.5222 32.2189C22.9304 32.1768 23.2805 31.903 23.4215 31.5188M21.4906 31.7309L23.6562 31.6052L23.656 31.6055L23.4215 31.5188M21.4906 31.7309L17.6051 25.7463L21.4906 31.7309ZM23.4215 31.5188L23.6562 31.605M23.4215 31.5188L23.6562 31.605M23.6562 31.605L27.3967 21.4829M23.6562 31.605L27.3967 21.4829M27.3967 21.4829L29.9495 28.348L29.9501 28.3497C30.1482 28.8704 30.6461 29.2147 31.204 29.2147H38.2497C38.9876 29.2147 39.5854 28.6197 39.5854 27.8791C39.5854 27.1431 38.9887 26.5431 38.2497 26.5431H32.1348L28.6435 17.177C28.6434 17.1767 28.6433 17.1764 28.6432 17.1761C28.4498 16.6513 27.9488 16.3048 27.3918 16.3048H27.3897C26.8307 16.3048 26.3312 16.6547 26.1381 17.1789L22.0695 28.1757L18.534 22.7308L27.3967 21.4829ZM27.7264 47.6776C27.5075 47.8167 27.2594 47.8816 27.0153 47.8816C26.7699 47.8816 26.5228 47.817 26.3029 47.6777M27.7264 47.6776C27.7267 47.6774 27.727 47.6772 27.7274 47.677L27.5931 47.4661L27.7256 47.6781C27.7259 47.6779 27.7262 47.6778 27.7264 47.6776ZM26.3029 47.6777C26.3031 47.6778 26.3033 47.6779 26.3035 47.6781L26.4361 47.4661L26.3021 47.6772C26.3024 47.6774 26.3027 47.6775 26.3029 47.6777Z" fill="#EC0404" stroke="#EC0404" stroke-width="0.5"/>
</svg>
